<?xml version="1.0" standalone="no"?><!DOCTYPE svg PUBLIC "-//W3C//DTD SVG 1.1//EN" "http://www.w3.org/Graphics/SVG/1.1/DTD/svg11.dtd"><svg t="1583421338388" class="icon" viewBox="0 0 1024 1024" version="1.1" xmlns="http://www.w3.org/2000/svg" p-id="1980" width="64" height="64" xmlns:xlink="http://www.w3.org/1999/xlink"><defs><style type="text/css"></style></defs><path d="M213.333333 444.330667l-55.168 55.168a42.666667 42.666667 0 1 1-60.330666-60.330667l85.333333-85.333333a42.666667 42.666667 0 0 1 60.330667 0l146.474666 146.474666 440.448-280.32a42.666667 42.666667 0 0 1 53.077334 5.845334l42.666666 42.666666a42.666667 42.666667 0 0 1-1.322666 61.610667l-512 469.333333a42.666667 42.666667 0 0 1-61.226667-3.669333l-141.482667-165.034667a42.666667 42.666667 0 0 1 64.810667-55.552l112.725333 131.541334 370.517334-339.626667-351.274667 223.573333a42.666667 42.666667 0 0 1-53.077333-5.845333L213.333333 444.330667z" p-id="1981" fill="#ffffff"></path></svg>